<svg width="203" height="237" viewBox="0 0 203 237" fill="none" xmlns="http://www.w3.org/2000/svg">
<g id="Frame" clip-path="url(#clip0_77_9477)">
<g id="Group">
<path id="Vector" d="M168.885 192.41C168.769 188.529 168.245 184.628 167.851 181.153C166.415 168.494 163.032 156.085 157.878 144.427C156.693 141.746 155.509 137.468 152.563 136.191C149.083 134.681 144.409 135.068 140.711 135.102C136.236 135.14 131.766 135.373 127.311 135.789C117.463 136.713 107.727 138.557 98.2142 141.257C97.593 141.432 97.3843 141.974 97.4668 142.467C90.5167 148.357 87.0998 157.29 83.6151 165.435C80.9845 171.586 78.4801 177.79 76.1068 184.043C74.0004 189.588 71.3504 195.28 70.8699 201.256C70.5545 205.258 77.7812 206.052 80.5623 206.633C86.0224 207.77 91.531 208.704 97.0591 209.454C108.261 210.979 119.594 211.685 130.892 211.114C136.964 210.804 143.021 210.132 149.005 209.043C154.262 208.085 159.392 206.512 164.541 205.123C165.313 204.915 166.104 204.697 166.759 204.233C169.472 202.297 168.968 195.284 168.885 192.415V192.41Z" fill="#6F4741"/>
<path id="Vector_2" d="M183.072 90.6469C176.694 79.9615 170.045 68.9906 159.741 61.6008C144.108 50.3928 124.636 55.5274 108.183 61.7073C105.198 62.8301 104.3 62.5881 101.257 62.8059C89.3907 63.6576 79.1887 66.5903 71.894 69.6391C66.9047 71.7249 63.9101 74.4495 60.7311 79.8599C55.7563 88.3289 56.5474 89.65 54.5236 95.9606C54.1935 96.9914 55.3681 97.5624 56.1203 97.1608C56.1737 97.2334 65.4389 101.928 65.5214 101.995C71.7484 106.975 66.5358 99.5466 74.0101 101.995C74.0926 104.163 74.2043 106.336 74.3547 108.499C74.7527 114.254 75.6117 117.37 77.8346 122.771C79.9313 127.862 82.6638 135.455 86.0224 139.786C87.8521 142.148 89.7547 144.456 91.7786 146.653C94.181 149.267 95.7584 151.469 99.4324 152.107C105.504 153.157 112.226 152.983 118.4 153.351C125.277 153.762 132.213 153.699 138.92 151.957C144.4 150.535 151.568 148.318 154.572 143.116C157.921 137.318 158.494 129.773 159.557 123.298C160.333 118.575 161.027 113.842 161.663 109.1C163.003 108.558 164.333 107.982 165.643 107.357C172.292 104.202 179.407 99.7644 182.659 92.8973C182.8 92.5972 182.8 92.3117 182.713 92.06C183.154 91.7745 183.412 91.2228 183.067 90.6421L183.072 90.6469Z" fill="#6F4741"/>
<path id="Vector_3" d="M120.613 64.4416C116.318 57.531 115.143 49.4443 114.1 41.5271C113.978 40.6076 111.969 41.469 111.653 42.1029C111.503 42.1029 111.348 42.1513 111.187 42.2723C107.504 45.0501 103.742 47.765 99.1412 48.7426C98.2822 48.9265 98.3841 49.9912 98.9908 50.3348C100.209 53.3352 101.311 56.3889 102.175 59.5151C103.14 63.0092 103.073 71.0377 103.121 71.2265C102.738 71.6572 102.767 72.4702 103.495 72.6638C108.945 74.0962 116.793 72.8815 119.234 66.7355C119.768 66.629 120.982 65.0465 120.613 64.4465V64.4416Z" fill="#F4C19E"/>
<path id="Vector_4" d="M108.11 51.0363C108.698 49.57 110.144 45.4662 108.523 44.2273C105.659 46.2453 102.645 47.9972 99.1412 48.7425C98.2822 48.9264 98.3841 49.991 98.9908 50.3346C99.9226 52.6285 100.782 54.9562 101.524 57.3179C104.548 56.2726 106.878 54.119 108.11 51.0412V51.0363Z" fill="#DA916E"/>
<path id="Vector_5" d="M138.6 22.0193C137.847 19.9577 136.188 18.3607 134.707 16.8073C131.014 12.9406 127.48 8.54157 123.292 5.19755C119.603 2.25035 114.352 0.154889 109.731 0.0145465C100.282 -0.266139 78.0045 3.56183 85.5176 13.5068C85.076 13.8262 84.9061 14.6102 85.5079 15.0215C93.9626 20.8482 102.621 26.8248 109.033 34.9599C110.362 36.644 111.386 39.0685 113.017 40.4574C114.575 41.7834 117.099 41.435 118.982 41.4834C121.865 41.5608 124.748 41.5995 127.636 41.6044C129.606 41.6044 131.97 41.8318 133.795 40.9026C135.508 40.0316 135.945 38.4539 136.391 36.7166C137.11 33.8952 137.867 31.0787 138.522 28.2428C138.998 26.186 139.342 24.0567 138.6 22.0193Z" fill="#6F4741"/>
<path id="Vector_6" d="M119.793 33.963C119.409 33.3968 118.608 33.5565 118.293 33.9775C117.953 33.9823 117.633 34.1469 117.521 34.5195C116.968 36.3778 115.59 37.1473 114.328 38.7395C113.109 40.2735 112.304 42.6255 111.129 44.1838C109.61 46.197 112.556 46.4196 114.852 46.0421C117.72 45.5727 120.564 44.9823 121.7 42.5287C123.069 39.5718 121.511 36.5278 119.793 33.9726V33.963Z" fill="#9A5544"/>
<path id="Vector_7" d="M113.066 21.4724C109.79 15.2489 103.684 12.8244 97.394 13.9181C95.4478 14.2569 93.4918 13.6665 92.3707 12.0549C91.7009 12.2775 91.0457 12.5389 90.4584 12.9405C88.7403 14.1262 86.1874 18.3413 85.3914 20.369C84.3916 22.9097 83.8092 25.6875 83.9694 28.4266C84.2606 33.4354 85.0032 38.7345 86.9445 44.174C88.585 48.7715 89.8226 51.6558 94.2247 52.764C98.6996 53.8916 105.955 51.3073 109.697 48.1085C110.503 47.4164 111.809 46.6954 112.241 45.6888C114.163 41.1881 113.959 38.149 115.007 33.3483C115.716 30.1011 117.026 27.3232 117.084 23.9357C115.585 24.0421 114.061 23.3453 113.075 21.4724H113.066Z" fill="#F4C19E"/>
<path id="Vector_8" d="M188.299 80.0437C181.092 72.2135 173.229 64.2624 164.007 58.8035C154.131 52.9527 140.269 52.0042 126.99 56.1225C126.296 56.3354 129.572 62.7912 129.533 63.459C128.854 74.0186 131.29 78.1853 137.047 87.1963C137.522 87.9416 138.022 88.6772 138.541 89.3982C138.75 89.6838 139.027 89.8289 139.313 89.8628C139.391 90.0032 139.502 90.129 139.663 90.2403C148.685 96.4202 157.946 102.411 168.206 106.36C176.253 109.458 189.862 113.702 195.366 104.139C200.335 95.5152 194.084 86.3252 188.304 80.0388L188.299 80.0437Z" fill="#6F4741"/>
<path id="Vector_9" d="M121.385 65.7724C120.244 63.1639 121.817 61.1846 120.671 58.5762C120.176 57.4486 118.429 53.7561 116.788 53.8578C116.153 53.8965 114.192 55.1789 113.726 55.5467C112.668 56.3743 111.576 57.1728 110.392 57.8164C107.834 59.2053 104.465 59.4908 101.68 58.46C98.2336 57.1873 100.694 71.1538 100.835 72.0539C101.311 75.0253 103.907 75.4028 106.63 75.7851C112.716 76.6417 119.429 73.98 120.511 67.4178C121.137 67.2774 121.719 66.5612 121.38 65.7772L121.385 65.7724Z" fill="#6F4741"/>
<path id="Vector_10" d="M79.8585 102.281C75.7331 91.5277 75.5098 83.9347 66.0116 77.508C66.0505 77.4063 61.8765 78.0451 62.0706 78.1758C57.3191 90.6421 47.5443 101.211 44.045 114.079C41.2008 124.547 35.6048 138.518 45.3651 147.021C49.0828 150.259 53.48 151.459 57.9889 148.996C62.9928 146.266 66.0408 140.435 68.8363 135.721C71.9134 130.528 74.6362 125.133 76.9853 119.577C79.3295 114.036 82.1542 108.272 79.8536 102.281H79.8585Z" fill="#6F4741"/>
<path id="Vector_11" d="M59.974 122.277C58.1248 120.114 54.4071 120.588 51.7571 120.279C47.8646 119.829 43.8169 120.051 39.9341 120.559C38.2111 120.782 34.6633 121.125 34.3381 123.342C34.1246 124.779 35.1341 130.562 35.9446 131.651C35.9543 131.666 35.9494 131.685 35.9592 131.7C37.2113 133.824 41.2979 134.681 43.5354 134.957C46.9716 135.378 50.568 135.058 53.9412 134.303C55.7855 133.892 57.6006 133.326 59.343 132.595C60.139 132.261 61.1873 131.922 61.4785 130.998C61.828 129.89 60.9155 123.385 59.974 122.282V122.277Z" fill="#6F4741"/>
<path id="Vector_12" d="M119.147 24.7438C117.211 21.9951 113.886 21.4095 110.857 21.0175C110.314 20.9449 110.013 21.3805 110.003 21.816C109.542 21.9031 107.081 21.9079 107.572 22.2757C109.945 24.0712 113.585 28.0249 115.153 33.4064C115.924 36.0487 119.39 35.1147 120.268 32.4869C121.103 29.9897 120.657 26.8877 119.147 24.7438Z" fill="#9A5544"/>
<path id="Vector_13" d="M121.928 21.9466C121.918 21.8546 121.904 21.7627 121.889 21.6707C121.457 18.9365 119.531 16.3522 117.482 14.581C112.804 10.545 106.378 8.977 100.296 9.16573C97.1998 9.26252 94.1082 9.80937 91.1864 10.8402C88.7549 11.6967 85.0323 13.0615 83.9354 15.5973C82.8434 18.1138 82.1202 21.0319 81.4213 23.6839C80.9554 25.46 80.9457 27.0715 81.8727 28.6976C81.9698 28.8621 82.0717 29.0266 82.1736 29.1863C82.5279 29.7477 83.7121 31.1657 84.0859 29.68C85.5904 22.9387 96.2486 22.6241 101.612 23.0693C107.518 23.5581 116.9 24.5744 118.361 31.6448C118.492 32.2884 121.006 35.7002 121.462 35.4582C121.739 35.4001 121.977 35.2162 122.069 34.8581C122.85 31.7754 122.336 25.1842 121.928 21.9418V21.9466Z" fill="#6F4741"/>
<path id="Vector_14" d="M53.4946 108.219C52.4657 105.954 50.7136 106.07 48.0588 106.205C39.5604 106.651 31.062 107.096 22.5685 107.546C22.2093 107.565 22.1074 107.923 22.2239 108.175C22.0492 108.301 21.9521 108.533 22.1123 108.761C23.7285 111.059 24.8011 113.842 26.9657 115.715C28.844 117.341 31.3338 117.999 33.7557 118.246C35.8329 118.464 37.9296 118.57 40.0409 118.619C40.0506 120.312 40.0603 122.006 40.07 123.7C40.0749 124.968 39.7448 126.947 40.2399 128.138C41.1135 130.238 44.8943 130.059 46.7289 130.069C49.1314 130.083 52.6695 129.938 54.2954 127.852C56.1543 125.466 55.3341 121.217 55.2079 118.43C55.0671 115.275 54.7468 112.095 53.8149 109.061C53.7179 108.746 53.616 108.465 53.4995 108.214L53.4946 108.219Z" fill="#F4C19E"/>
<path id="Vector_15" d="M117.579 28.0201C114.818 28.1895 113.425 30.9576 112.872 33.329C112.483 34.984 111.726 39.9831 113.935 40.7816C115.119 41.2075 115.876 39.8863 116.371 39.0685C117.4 37.3747 118.283 35.5212 119.016 33.6774C119.628 32.1336 120.564 27.8362 117.579 28.0201Z" fill="#F4C19E"/>
<path id="Vector_16" d="M67.0988 138.678C67.3026 138.189 62.9151 138.204 62.7792 137.681C62.2987 135.789 60.5758 123.865 58.0811 123.836C57.9452 123.836 57.8239 123.908 57.7074 123.981C54.3245 126.12 50.3156 126.85 46.3552 126.492C44.3653 126.313 42.3608 125.839 40.5796 124.92C40.0117 124.629 36.2697 121.672 35.9494 123.361C35.1243 127.731 36.4202 132.861 37.0511 137.212C37.8471 142.714 39.7302 147.563 44.7972 150.36C48.9275 152.64 53.8877 152.94 58.0763 150.302C62.3376 147.621 65.206 143.232 67.0939 138.673L67.0988 138.678Z" fill="#6F4741"/>
<path id="Vector_17" d="M152.16 142.128C146.05 146.658 138.245 148.928 130.868 150.414C127.66 151.057 124.403 151.502 121.132 151.74C121.035 151.493 120.928 151.256 120.788 151.018C120.822 150.956 120.841 150.878 120.802 150.796C115.789 139.651 113.342 127.576 112.061 115.483C111.386 109.124 111.018 102.736 110.722 96.3526C110.43 90.0807 110.44 83.7169 109.78 77.4692C109.63 76.0561 109.358 74.6624 108.814 73.3412C108.227 71.9233 107.392 70.6311 106.635 69.3051C105.145 66.6967 103.737 63.0478 106.053 60.4539C106.237 60.2458 105.931 59.9361 105.742 60.1442C101.864 64.4899 106.98 69.7455 108.533 73.8058C109.659 76.7433 109.537 80.1115 109.693 83.2136C109.858 86.5141 109.994 89.8194 110.139 93.1198C110.707 105.964 111.401 118.88 114.129 131.482C115.58 138.18 117.613 144.747 120.424 151.004C120.375 151.067 120.36 151.149 120.409 151.231C120.511 151.406 120.598 151.585 120.676 151.769C116.269 152.059 111.838 151.952 107.455 151.425C103.233 150.912 98.122 150.375 94.6955 147.631C94.4771 147.457 94.1664 147.762 94.3848 147.941C97.2532 150.239 101.068 150.883 104.606 151.459C108.533 152.102 112.517 152.393 116.497 152.359C117.943 152.344 119.39 152.291 120.836 152.194C121.317 153.714 120.996 155.355 120.613 156.908C120.142 158.791 119.628 160.659 119.133 162.531C118.152 166.258 117.181 169.989 116.308 173.744C114.575 181.173 113.226 188.708 112.886 196.339C112.872 196.62 113.308 196.62 113.323 196.339C113.687 188.185 115.211 180.147 117.118 172.225C118.05 168.343 119.074 164.482 120.094 160.62C120.768 158.055 122.093 154.861 121.292 152.17C127.835 151.691 134.319 150.365 140.541 148.299C144.734 146.905 148.821 145.153 152.383 142.511C152.607 142.346 152.388 141.969 152.165 142.133L152.16 142.128Z" fill="#4B2D27"/>
<path id="Vector_18" d="M44.6274 118.226C43.317 118.362 42.0114 118.386 40.6961 118.309C40.4146 118.294 40.4146 118.725 40.6961 118.744C42.0114 118.822 43.317 118.798 44.6274 118.662C44.904 118.633 44.9089 118.197 44.6274 118.226Z" fill="#E38A72"/>
<path id="Vector_19" d="M39.5507 116.349C37.5414 116.368 36.328 114.679 35.8475 112.918C35.7747 112.647 35.3525 112.763 35.4253 113.034C35.9592 114.989 37.3424 116.809 39.5507 116.784C39.8322 116.784 39.8322 116.344 39.5507 116.349Z" fill="#E38A72"/>
<path id="Vector_20" d="M44.9817 115.589C43.8605 115.342 42.4433 114.883 42.2686 113.561C42.2298 113.286 41.793 113.286 41.8318 113.561C42.0405 115.11 43.5062 115.705 44.8652 116.01C45.137 116.073 45.2535 115.652 44.9817 115.589Z" fill="#E38A72"/>
<path id="Vector_21" d="M94.38 39.0153C93.4093 39.1266 92.6619 38.3765 92.4678 37.4667C92.5745 37.9651 92.5406 35.7874 92.9385 34.6308C93.0308 34.3646 92.6085 34.2533 92.5163 34.5146C92.1329 35.6374 91.6912 36.9634 92.2251 38.12C92.6134 38.9669 93.4287 39.5573 94.38 39.4508C94.6567 39.4218 94.6567 38.9863 94.38 39.0153Z" fill="#DA916E"/>
<path id="Vector_22" d="M96.9135 38.5846C96.3505 38.4685 95.7875 38.4297 95.2197 38.4781C94.943 38.5023 94.9382 38.9379 95.2197 38.9137C95.7535 38.8701 96.2729 38.8992 96.797 39.0056C97.0688 39.0637 97.1901 38.6427 96.9135 38.5846Z" fill="#DA916E"/>
<path id="Vector_23" d="M116.856 30.1883C115.735 31.5336 115.085 33.1016 114.925 34.8438C114.9 35.1245 115.337 35.1196 115.361 34.8438C115.507 33.2274 116.123 31.7466 117.162 30.498C117.342 30.2851 117.031 29.9753 116.851 30.1883H116.856Z" fill="#DA916E"/>
<path id="Vector_24" d="M61.9493 132.89C61.5659 132.14 60.8767 131.429 60.6486 130.606C60.3816 129.662 60.6826 128.506 60.7359 127.547C60.8913 124.842 60.1924 121.266 56.9648 120.787C56.6882 120.748 56.5717 121.164 56.8483 121.208C60.8136 121.798 60.3234 126.565 60.1535 129.464C60.0759 130.809 60.6631 131.516 61.3087 132.634C62.1871 134.148 62.6045 135.837 62.6239 137.579C62.6239 137.86 63.0607 137.86 63.0607 137.579C63.0462 135.949 62.6967 134.352 61.9493 132.89Z" fill="#4B2D27"/>
<path id="Vector_25" d="M56.5086 131.535C50.7524 134.889 43.3898 135.765 37.7937 131.588C37.5705 131.419 37.3521 131.796 37.5753 131.966C43.2927 136.229 50.8543 135.334 56.7319 131.912C56.9745 131.772 56.7561 131.395 56.5135 131.535H56.5086Z" fill="#4B2D27"/>
<path id="Vector_26" d="M145.37 87.0995C144.201 85.2363 141.735 84.5491 139.93 83.4796C136.338 81.3503 134.426 80.0001 132.81 76.1237C132.407 75.1607 129.946 73.5298 129.747 74.2848C129.315 73.9944 128.645 73.9702 128.242 74.5025C124.942 78.8241 122.744 83.799 121.753 89.1369C121.598 89.9886 122.433 90.5064 123.059 90.3613C123.151 90.429 123.243 90.4968 123.336 90.5645C127.053 94.2376 131.62 97.3155 136.872 98.1333C139.095 98.4818 141.298 98.7818 142.808 96.8267C144.404 94.7554 145.045 91.876 145.705 89.4031C145.943 88.5078 145.788 87.7528 145.375 87.0995H145.37Z" fill="#F4C19E"/>
<path id="Vector_27" d="M134.29 79.1532C133.683 77.3868 132.669 75.6737 131.344 74.1928C131.305 74.1493 131.266 74.1154 131.227 74.0864C131.043 72.2668 130.451 70.1616 128.286 70.4181C128.102 70.4375 127.922 70.4713 127.743 70.5101C126.685 68.5743 125.243 66.5756 123.297 66.1401C121.501 65.7384 120.021 66.5659 118.764 67.7226C116.672 66.1643 114.294 65.1286 111.527 65.2545C106.096 65.5013 101.262 69.5761 97.2193 72.8523C96.3165 73.5831 97.8356 75.4075 98.6025 75.6785C97.1659 77.0384 98.7384 78.8387 100.321 79.4291C107.863 82.2408 112.047 91.455 120.424 92.3116C123.641 92.6406 127.146 92.2583 130.092 90.6904C134.848 88.1594 135.785 83.4893 134.295 79.1581L134.29 79.1532ZM112.964 77.0674C112.998 77.3143 113.061 77.5417 113.134 77.7546C111.882 78.4176 109.984 78.1321 108.79 77.7643C106.873 77.1739 104.994 76.3851 103.116 75.6785C102.684 75.514 102.223 75.3301 101.757 75.1801C103.339 74.4929 104.917 73.4282 105.693 73.012C107.445 72.0732 109.1 71.8119 110.673 72.0006C111.678 72.4168 112.901 73.0314 113.663 73.888C113.124 74.8655 112.799 75.9108 112.964 77.0578V77.0674Z" fill="#F4C19E"/>
<path id="Vector_28" d="M186.008 87.8545C182.489 87.1818 178.116 88.4159 174.53 88.4546C170.506 88.4933 166.483 88.2175 162.503 87.6319C158.217 87.0028 153.985 86.0107 149.865 84.675C147.753 83.9878 145.671 83.2135 143.623 82.3473C142.424 81.8391 141.347 81.0068 140.09 80.6438C139.216 80.3873 136.425 80.2373 137.43 82.023C139.493 85.6962 139.483 90.1 138.886 94.1506C138.498 96.7735 135.586 101.918 137.663 104.308C139.216 106.099 143.521 107.038 145.715 107.759C149.059 108.862 152.49 109.695 155.912 110.508C164.25 112.487 173.491 114.22 182.062 112.961C188.11 112.129 195.836 108.572 197.171 99.8708C198.059 94.0877 192.206 89.1466 186.173 87.8884C186.12 87.8787 186.066 87.8642 186.008 87.8545Z" fill="#6F4741"/>
<path id="Vector_29" d="M98.9277 76.24C97.7483 73.5251 95.4138 71.1054 93.2831 69.5761C91.9242 68.5986 88.4588 66.9048 87.328 69.0873C86.2893 71.086 88.1919 73.6799 89.6673 74.8462C91.5407 76.3222 93.8801 76.9465 96.2146 76.8788C94.8702 77.8273 93.7005 79.0662 93.5355 80.7842C93.3899 82.2941 94.2587 83.9491 95.8457 84.283C97.36 84.6024 98.7044 83.4797 99.2286 82.1344C100 80.1647 99.7431 78.1322 98.9228 76.24H98.9277Z" fill="#F9A154"/>
<path id="Vector_30" d="M109.523 76.2303C107.072 75.1462 104.499 74.7252 101.83 75.0059C101.325 75.0591 101.32 75.8576 101.83 75.8044C104.349 75.5382 106.8 75.8964 109.12 76.9175C109.586 77.1256 109.994 76.4384 109.523 76.2303Z" fill="#F9A154"/>
<path id="Vector_31" d="M117.526 68.7632C116.512 69.8133 115.657 70.9845 114.968 72.2717C114.847 72.4992 115.192 72.6976 115.313 72.475C115.988 71.2168 116.817 70.0747 117.808 69.0487C117.987 68.8648 117.706 68.5793 117.526 68.768V68.7632Z" fill="#E38A72"/>
<path id="Vector_32" d="M132.281 80.1357C132.46 79.9519 132.179 79.6712 131.999 79.8551C131.489 80.3777 130.873 80.8859 130.431 81.4666C130.291 81.6505 130.155 81.7763 130.16 82.0328C130.169 82.5845 130.742 83.0878 130.834 83.6395C131.053 84.9461 130.062 85.3284 129.072 85.1784C129.048 85.1542 129.024 85.1349 128.985 85.13C126.772 84.5977 125.364 82.4538 125.864 80.2132C126.374 77.9338 128.31 76.4046 130.072 75.0641C130.276 74.9092 130.072 74.5656 129.868 74.7205C127.849 76.2545 125.602 78.079 125.364 80.7939C125.272 81.8731 125.588 82.8894 126.185 83.7121C126.17 83.7217 126.151 83.7266 126.136 83.7411C125.175 84.5493 123.874 84.4767 122.996 83.5959C122.952 83.5475 122.899 83.533 122.85 83.5378C121.962 82.8023 121.423 81.7908 120.962 80.7407C120.302 79.2356 120.04 78.0209 120.899 76.5207C122.127 74.372 124.253 72.9492 126.262 71.6039C126.476 71.4635 126.277 71.1151 126.058 71.2603C123.777 72.7895 121.113 74.5366 120.118 77.2321C119.623 78.5726 120.069 79.705 120.613 80.9439C120.982 81.786 121.404 82.5748 121.986 83.2475C121.423 83.7459 120.69 83.9347 119.958 83.775C119.929 83.7459 119.89 83.7266 119.846 83.7217C116.982 83.3636 115.361 80.8326 113.998 78.5726C113.867 78.3549 113.517 78.5533 113.653 78.7759C115.07 81.123 116.73 83.6056 119.613 84.0847C119.632 84.1041 119.662 84.1186 119.696 84.1283C120.608 84.3944 121.559 84.167 122.263 83.5427C122.457 83.7363 122.666 83.925 122.904 84.0895C122.933 84.1089 122.962 84.1186 122.991 84.1234C124.015 84.9268 125.393 84.8977 126.422 84.0266C126.66 84.2928 126.927 84.5299 127.218 84.7429C127.136 84.709 127.039 84.7235 126.99 84.8251C126.253 86.2866 126.476 87.9853 127.553 89.2145C127.723 89.408 128.005 89.1225 127.835 88.9338C126.874 87.8449 126.68 86.3205 127.33 85.0235C127.369 84.9413 127.354 84.8687 127.311 84.8106C127.621 85.0284 127.961 85.2074 128.32 85.3429C128.34 85.3865 128.378 85.4204 128.432 85.4397C129.47 85.7979 130.883 85.7398 131.208 84.467C131.349 83.9202 131.188 83.3443 130.965 82.8458C130.669 82.1973 130.548 81.9167 131.096 81.3553C131.489 80.9536 131.878 80.5471 132.271 80.1454L132.281 80.1357Z" fill="#E38A72"/>
<path id="Vector_33" d="M187.93 88.808C182.208 85.9189 175.699 86.427 169.492 86.6206C162.352 86.8384 155.291 86.035 148.472 83.8524C145.026 82.7491 141.492 80.5955 137.779 80.8472C137.503 80.8665 137.498 81.3021 137.779 81.2827C141.206 81.0504 144.434 82.962 147.593 84.0218C150.782 85.0913 154.058 85.885 157.383 86.4028C160.639 86.9061 163.935 87.1432 167.235 87.1094C170.395 87.0755 173.549 86.8529 176.709 86.9013C180.504 86.9593 184.295 87.4626 187.717 89.1903C187.964 89.3161 188.187 88.9435 187.935 88.8128L187.93 88.808Z" fill="#4B2D27"/>
<path id="Vector_34" d="M153.893 87.9755C153.762 87.7287 153.383 87.9465 153.514 88.1933C155.242 91.4067 154.99 95.0943 154.121 98.5206C153.388 101.405 152.578 104.855 150.136 106.796C149.918 106.97 150.229 107.275 150.447 107.106C153.034 105.049 153.907 101.303 154.64 98.2496C155.461 94.8136 155.616 91.1647 153.893 87.9707V87.9755Z" fill="#4B2D27"/>
<path id="Vector_35" d="M160.231 111.398C155.669 110.542 151.146 109.506 146.671 108.272C144.501 107.672 142.342 107.043 140.201 106.346C139.051 105.973 137.867 105.538 137.328 104.366C136.818 103.258 137.071 101.952 137.289 100.81C137.343 100.534 136.92 100.418 136.867 100.693C136.542 102.392 136.275 104.391 137.741 105.649C138.401 106.215 139.265 106.501 140.08 106.767C141.415 107.202 142.764 107.609 144.113 108.001C149.379 109.54 154.718 110.808 160.11 111.819C160.387 111.872 160.503 111.451 160.227 111.398H160.231Z" fill="#4B2D27"/>
<path id="Vector_36" d="M130.606 18.114C127.942 16.0863 124.947 14.5474 121.724 13.6134C118.88 12.7858 115.41 12.0164 112.673 13.5359C112.619 13.565 112.595 13.6037 112.576 13.6473C109.144 12.5971 105.596 11.9293 102.019 11.6389C100.806 11.5421 99.5926 11.4937 98.3792 11.4889C98.4423 11.3824 98.4375 11.2324 98.3161 11.1404C96.8601 10.0419 96.9086 7.97063 98.3986 6.92532C98.651 6.74626 98.4084 6.33008 98.156 6.50913C96.3748 7.7577 96.3165 10.1484 97.9909 11.4889C95.0158 11.4937 92.0406 11.7647 89.1092 12.2922C88.8325 12.3406 88.949 12.7616 89.2256 12.7132C96.2971 11.4405 103.606 11.7018 110.561 13.5214C116.41 15.0507 123.69 17.7656 126.398 23.6793C127.417 25.9055 126.553 28.1848 125.889 30.3771C125.272 32.4096 124.612 34.4276 123.908 36.4312C123.816 36.6973 124.238 36.8086 124.331 36.5473C125.034 34.5438 125.694 32.5258 126.311 30.4932C126.82 28.8043 127.548 26.9604 127.301 25.165C126.903 22.2662 124.335 19.7207 122.088 18.0705C119.424 16.1153 116.313 14.8281 113.177 13.8263C115.963 12.4568 119.574 13.4101 122.375 14.3151C125.267 15.2539 127.946 16.6912 130.363 18.5302C130.611 18.7189 130.854 18.2979 130.606 18.114Z" fill="#4B2D27"/>
<path id="Vector_37" d="M130.135 32.4578C129.296 31.1802 128.733 29.801 128.432 28.3008C128.378 28.0249 127.956 28.1411 128.01 28.4169C128.315 29.9462 128.898 31.369 129.757 32.6756C129.912 32.9079 130.286 32.6901 130.135 32.4578Z" fill="#4B2D27"/>
<path id="Vector_38" d="M158.94 177.993C155.533 174.431 153.306 169.945 152.514 165.086C152.471 164.811 152.049 164.927 152.092 165.203C152.893 170.134 155.169 174.688 158.63 178.303C158.824 178.506 159.135 178.196 158.94 177.993Z" fill="#4B2D27"/>
<path id="Vector_39" d="M89.4101 34.9502C89.4683 35.7439 89.1237 36.4117 88.6432 36.4456C88.1627 36.4794 87.7308 35.8648 87.6725 35.0712C87.6143 34.2775 87.9589 33.6097 88.4394 33.5758C88.9199 33.5419 89.3518 34.1565 89.4101 34.9502Z" fill="#36221E"/>
<path id="Vector_40" d="M102.864 33.6531C102.927 34.5097 102.519 35.2404 101.961 35.2792C101.403 35.3179 100.893 34.6549 100.835 33.7983C100.777 32.9417 101.18 32.211 101.738 32.1723C102.301 32.1336 102.806 32.7965 102.864 33.6531Z" fill="#36221E"/>
<path id="Vector_41" d="M104.694 27.9959C103.131 27.1248 101.146 26.9603 99.5344 27.6668C97.957 28.3637 98.0977 30.8753 99.9226 31.0447C101.369 31.1802 102.592 30.7108 103.946 30.2898C104.47 30.1252 105.349 30.0623 105.519 29.3364C105.684 28.6492 105.164 28.2621 104.689 27.9959H104.694Z" fill="#9A5544"/>
<path id="Vector_42" d="M91.2592 29.5058C90.8952 28.5524 89.5363 28.4024 88.6626 28.5137C87.8958 28.6105 87.0901 28.9638 86.5368 29.5445C86.0806 30.0188 85.372 31.1512 86.2505 31.5819C86.7941 31.8481 87.3522 31.8336 87.9492 31.7997C88.5559 31.7658 89.2014 31.7755 89.7983 31.6448C90.7593 31.4367 91.6669 30.5511 91.2689 29.5058H91.2592Z" fill="#9A5544"/>
<path id="Vector_43" d="M99.1704 42.1658C97.3455 43.0756 95.2925 44.0435 93.288 43.0563C92.2591 42.553 92.6813 44.2613 93.3608 44.6339C94.249 45.1227 95.574 45.1711 96.4476 44.8275C97.0543 44.5855 97.6367 44.2855 98.1948 43.9419C98.6268 43.6757 99.3791 43.3273 99.6314 42.8724C99.8062 42.5578 99.7916 41.8513 99.1704 42.1658Z" fill="#E38A72"/>
<path id="Vector_44" d="M28.0141 115.308C27.8782 115.245 27.7423 115.183 27.6015 115.12C27.6112 115.105 27.6161 115.086 27.6209 115.071C27.8296 115.178 28.0141 114.839 27.8054 114.679C26.5823 113.74 26.0339 112.221 24.937 111.166C25.0049 111.074 25.0146 110.924 24.8884 110.842C24.0391 110.261 23.0053 110.033 22.0055 110.333C21.4037 110.517 20.7727 110.943 21.0057 111.645C21.2969 112.54 22.5054 113.169 23.282 113.561C24.7623 114.311 26.2959 114.984 27.8005 115.691C28.0529 115.812 28.2761 115.434 28.0189 115.313L28.0141 115.308Z" fill="#F4C19E"/>
<path id="Vector_45" d="M33.8722 116.576C30.9698 116.305 29.4507 113.687 28.8634 111.113C28.8003 110.842 28.3781 110.953 28.4412 111.229C29.0818 114.021 30.766 116.722 33.8722 117.017C34.1537 117.041 34.1488 116.605 33.8722 116.581V116.576Z" fill="#E38A72"/>
</g>
<path id="Vector_46" d="M181.873 192.299C178.393 191.795 174.908 191.529 171.419 191.437C153.17 190.968 61.5562 187.783 44.409 188.519C35.1632 188.916 27.1356 193.179 34.2604 201.024C36.6823 203.695 40.0991 205.2 43.3849 206.701C51.5387 210.422 54.3343 219.239 61.6921 224.074C75.5923 233.211 95.0886 236.84 111.488 236.99C128.626 237.145 146.108 234.803 162.925 231.609C171.292 230.022 180.315 227.718 188.192 224.302C194.123 221.732 200.801 216.355 202.612 209.904C205.694 198.914 189.93 193.46 181.878 192.294L181.873 192.299Z" fill="#9A5544"/>
<g id="Group_2">
<path id="Vector_47" d="M94.0742 100.287C93.783 98.3608 92.7444 96.4541 91.1233 94.7893C87.857 91.4453 83.1637 89.7854 78.781 88.4642C66.1669 84.6653 52.8491 84.1426 39.7691 84.7088C28.9653 85.1783 17.5403 85.2266 7.74122 90.4048C5.32907 91.6824 3.01397 93.3036 1.50455 95.5733C-0.747441 98.9512 -0.320339 103.234 1.81517 106.559C5.46011 112.231 12.7645 114.316 19.0449 115.304C35.3816 117.873 52.4851 117.525 68.846 115.42C76.2087 114.471 85.4254 112.429 91.2738 107.285C93.618 105.218 94.4528 102.736 94.0791 100.282L94.0742 100.287Z" fill="#F9E9D4"/>
<path id="Vector_48" d="M59.4207 91.2081C58.5616 88.5706 57.3531 85.4444 55.1108 83.6586C53.6985 82.5359 51.8008 82.1826 50.2719 82.9424C48.3597 80.3872 45.8699 79.1725 42.4385 80.5808C38.6674 82.1294 35.6582 85.1637 33.8479 88.7691C33.7314 89.0013 33.6926 89.2288 33.7071 89.4417C32.7219 90.879 33.0859 92.5002 34.5274 94.2908C36.7308 97.0251 40.1428 98.4479 43.5596 98.9173C47.1463 99.4061 51.4998 99.2657 54.9943 98.2204C57.6152 97.4364 59.8769 95.0893 59.2459 92.3067C59.4692 92.0308 59.5663 91.6582 59.4207 91.2081Z" fill="#FBCC78"/>
<path id="Vector_49" d="M47.9034 85.9042C46.2969 83.9103 44.2051 85.5848 42.9723 87.1721C42.6132 86.543 41.8318 86.2091 40.9485 86.4559C39.0799 86.9737 38.415 89.3982 38.2936 91.2275C37.4588 92.51 37.09 94.0295 38.3179 94.9974C39.4633 95.9024 41.924 95.854 43.3169 96.0185C44.4332 96.1492 45.302 96.0814 46.0349 95.1474C47.1609 93.7101 47.6899 91.4453 48.0782 89.7176C48.3402 88.5465 48.7528 86.9592 47.9083 85.909L47.9034 85.9042Z" fill="#D4615D"/>
<path id="Vector_50" d="M65.4486 102.068C65.4729 102.044 65.502 102.029 65.5263 102.005C66.3756 101.24 66.9581 100.263 67.458 99.2463C68.3995 95.791 68.7635 92.0501 66.4776 89.0642C65.8029 88.1786 65.4729 87.1236 64.7255 86.2138C63.6383 84.8878 61.2601 82.6811 59.4498 82.6036C58.2316 82.5504 57.5861 83.8522 57.1541 84.8878C56.3581 86.7946 56.5329 88.7545 57.2706 90.6419C58.9402 94.9296 61.7358 99.2657 65.4535 102.068H65.4486Z" fill="#BFC264"/>
<path id="Vector_51" d="M59.8817 84.1475C59.3333 83.4555 58.3869 83.1845 57.7802 83.7507C56.6785 83.0103 55.3486 83.5184 54.4313 84.4863C53.2568 85.73 52.7763 87.2883 53.5723 88.8611C54.2712 90.2452 55.7903 92.0648 57.5084 91.7889C58.1976 91.6776 59.4838 91.3195 60.0225 90.8307C60.6631 90.2548 60.5903 89.2628 60.702 88.4643C60.7165 88.3626 60.6923 88.2804 60.6534 88.2029C60.8184 86.7801 60.7651 85.2654 59.8769 84.1427L59.8817 84.1475Z" fill="#D4615D"/>
<path id="Vector_52" d="M29.9942 87.8641C29.0381 87.4672 27.9412 88.2899 27.2812 88.8707C26.6114 89.4611 25.9271 89.5288 25.3155 90.1434C24.0245 91.4501 23.8255 93.2842 24.1604 95.0119C24.4759 96.6379 25.2184 98.8301 26.2134 100.161C26.7715 100.906 27.9218 101.598 28.8779 101.289C30.1398 100.877 29.9942 99.1737 30.0088 98.0994C30.0282 96.4927 29.9214 95.0312 30.2515 93.4294C30.4456 92.476 30.7659 91.5517 30.8776 90.579C30.9843 89.6643 31.0426 88.2996 29.9942 87.8641Z" fill="#BFC264"/>
<path id="Vector_53" d="M34.7749 104.589C34.7749 104.589 34.8186 104.608 34.8428 104.618C35.3767 104.628 35.7796 104.308 35.9834 103.887C39.0896 102.155 39.8516 98.3704 40.1622 94.9296C40.3078 94.7311 40.3952 94.4747 40.3806 94.1553C40.303 91.9436 40.3661 88.3915 38.9489 86.5622C38.0413 85.3911 37.1191 85.4637 36.2698 86.0009C35.7068 84.4087 34.6584 83.1263 32.6831 84.1909C30.2563 85.4976 28.4412 88.6867 27.4656 91.1113C26.558 93.3664 25.7863 97.9542 26.5095 100.495C28.6401 103.04 31.7755 103.302 34.7749 104.589Z" fill="#BFC264"/>
<path id="Vector_54" d="M65.5263 102.005C66.298 101.308 66.8513 100.437 67.3221 99.5173C67.4725 98.322 67.4531 97.1363 67.3026 96.333C67.1133 95.307 66.5989 94.3585 65.7253 93.7584C65.0361 93.2842 64.2789 93.168 63.4733 93.0422C63.284 93.018 63.0899 92.989 62.9006 92.9599C64.3857 91.0048 63.6334 88.0963 61.3329 87.293C56.0524 85.4395 50.568 88.077 46.4474 91.4984C46.2872 91.0629 45.9378 90.6902 45.2146 90.4338C43.4189 89.7901 41.1669 90.7048 39.6623 91.6485C36.0222 93.9423 33.0859 97.6058 30.8921 101.332C30.6349 101.768 28.9313 102.073 29.1158 102.503C39.4584 109.249 63.9974 103.394 65.5311 102.014L65.5263 102.005Z" fill="#BFC264"/>
<path id="Vector_55" d="M49.2187 81.7374C48.9518 81.0889 48.4956 80.484 48.1218 80.1501C47.1706 79.2935 46.1853 79.1677 45.0981 79.5451C44.8069 79.2499 44.2876 79.3371 43.8411 79.6468C42.9578 80.2517 41.6134 81.9939 41.725 83.1553C41.8706 84.6652 45.0496 83.4215 45.8844 83.5812C46.3261 83.6683 46.7386 83.4505 46.9522 83.0731C47.3938 82.2794 48.3063 81.7519 49.2236 81.7422L49.2187 81.7374Z" fill="#F9E9D4"/>
<path id="Vector_56" d="M27.2326 99.5802C26.1503 98.9753 25.0437 98.4139 23.8449 98.2542C22.8985 98.1236 19.5982 98.8495 20.5543 100.403C20.8601 100.897 22.0734 101.201 22.583 101.443C23.5731 101.913 24.5584 102.406 25.563 102.842C26.723 103.345 28.2519 104.062 29.5526 103.887C31.9502 103.558 31.3289 101.618 29.504 100.795C28.7421 100.451 27.9946 100.006 27.2326 99.5851V99.5802Z" fill="white"/>
<path id="Vector_57" d="M70.4574 101.434C69.7342 98.3511 65.3273 100.267 63.8713 101.298C62.8084 102.048 56.9163 104.667 61.2116 104.933C62.3133 105 63.5412 104.594 64.5847 104.289C66.3659 103.776 68.9286 103.142 70.3458 101.855C70.4622 101.748 70.4914 101.579 70.4574 101.429V101.434Z" fill="white"/>
<path id="Vector_58" d="M54.5381 108.107C51.66 107.561 48.8935 107.74 46.0203 108.18C44.8021 108.369 48.0296 110.261 48.3597 110.392C50.6748 111.311 52.6355 109.922 54.6449 108.901C54.9652 108.737 54.907 108.175 54.5381 108.107Z" fill="#F9E9D4"/>
<path id="Vector_59" d="M22.8548 90.1241C21.2435 89.7176 19.4477 91.4017 20.4475 93.052C21.8308 95.3313 24.9078 90.642 22.8548 90.1241Z" fill="white"/>
<path id="Vector_60" d="M39.2546 91.8807C38.2839 92.2533 37.2647 92.6405 36.5464 93.4245C36.2358 93.7632 36.0513 94.1746 35.7892 94.5375C35.3427 95.157 34.6924 95.4812 34.0857 95.9168C32.3821 97.1363 31.2901 98.9946 30.9698 101.047C30.9261 101.322 31.3483 101.439 31.392 101.163C31.7366 98.9462 32.9597 97.1653 34.8283 95.9458C35.4641 95.5296 35.9154 95.1231 36.3377 94.4891C37.1094 93.318 38.0849 92.7953 39.3759 92.3017C39.6332 92.2001 39.5215 91.7839 39.2595 91.8807H39.2546Z" fill="#9B9B49"/>
<path id="Vector_61" d="M30.0282 98.8738C29.1546 98.2544 28.5528 97.3688 28.3489 96.3138C28.1548 95.3023 28.5188 94.5087 28.7226 93.5408C28.8585 92.8971 28.7081 92.3358 28.6062 91.7067C28.3926 90.4532 28.6498 89.3402 29.3973 88.3094C29.5623 88.0819 29.1837 87.8642 29.0187 88.0916C28.4169 88.924 28.0626 89.8774 28.082 90.9178C28.0917 91.4453 28.2373 91.9438 28.3053 92.4664C28.4169 93.3472 28.0626 93.9908 27.9121 94.8232C27.5966 96.5509 28.4072 98.2544 29.8147 99.2513C30.0428 99.4158 30.2612 99.0383 30.0331 98.8738H30.0282Z" fill="#9B9B49"/>
<path id="Vector_62" d="M65.5991 93.323C65.2448 93.052 64.8322 92.8681 64.3954 92.7616C63.7985 92.6213 63.1966 92.8149 63.2694 92.0406C63.3131 91.5615 63.6237 91.0872 63.6674 90.5791C63.7062 90.0855 63.6529 89.5822 63.4733 89.1176C63.1627 88.3287 62.5366 87.7867 61.726 87.5641C61.4542 87.4915 61.3378 87.9077 61.6096 87.9852C63.0704 88.3868 63.4684 89.9016 63.1044 91.2372C62.9928 91.6534 62.5123 92.3213 62.7453 92.781C62.9151 93.1149 63.1481 93.081 63.4684 93.1101C65.1186 93.2698 66.3368 94.1167 66.4048 95.8879C66.4145 96.1686 66.8513 96.1686 66.8416 95.8879C66.8027 94.8765 66.4193 93.9425 65.5942 93.3133L65.5991 93.323Z" fill="#9B9B49"/>
<path id="Vector_63" d="M59.6536 98.0946C58.1588 96.9718 55.9165 97.5622 54.3634 98.2204C53.9605 98.3946 53.5674 98.593 53.1888 98.8156C52.6113 99.1592 52.388 99.4206 51.7474 99.1447C51.0339 98.8398 50.4806 98.7479 49.7235 99.077C47.9714 99.8319 47.0784 101.787 46.3406 103.408C46.2241 103.66 46.6027 103.882 46.7192 103.626C47.321 102.3 47.9568 100.892 49.1265 99.9674C49.5682 99.619 50.0923 99.2851 50.6796 99.2802C51.1989 99.2754 51.3833 99.5464 51.791 99.7593C52.024 99.8803 52.1696 99.919 52.4317 99.8271C53.0432 99.6141 53.6062 99.0576 54.2032 98.7721C54.9264 98.4285 55.7078 98.1623 56.4989 98.022C57.3628 97.8671 58.348 97.8478 59.1391 98.2881C60.1341 98.8447 60.6049 100.263 59.707 101.134C59.5032 101.327 59.8138 101.637 60.0176 101.443C60.998 100.495 60.7068 98.8931 59.6536 98.1042V98.0946Z" fill="#9B9B49"/>
<path id="Vector_64" d="M42.8898 114.684L31.261 113.663C27.3054 113.315 23.3402 113.01 19.4332 112.269C12.8762 111.021 5.56203 108.044 3.55271 101.032C3.47505 100.761 3.0528 100.877 3.13046 101.148C5.04757 107.846 11.7744 111.074 18.1033 112.443C22.0055 113.286 25.995 113.634 29.9651 113.982C34.2701 114.36 38.58 114.737 42.885 115.12C43.1665 115.144 43.1616 114.708 42.885 114.684H42.8898Z" fill="#DCA690"/>
</g>
<g id="Group_3">
<path id="Vector_65" d="M135.193 191.776C133.256 194.602 133.761 197.675 134.63 201.198C136.188 207.543 139.24 217.681 145.812 220.633C154.247 224.422 176.301 225.216 184.974 217.405C193.647 209.594 196.482 197.975 192.662 192.453C187.649 185.209 174.093 184.318 166.211 183.946C157.159 183.52 143.342 183.505 136.338 190.411C135.887 190.856 135.508 191.311 135.193 191.771V191.776Z" fill="#F9E9D4"/>
<path id="Vector_66" d="M150.898 201.75C155.063 202.592 159.387 203.047 163.629 203.129C167.948 203.216 172.297 202.897 176.52 201.963C179.359 201.334 182.392 200.714 184.853 199.083C187.503 197.327 189.173 193.755 190.512 190.972C191.444 189.042 192.769 186.457 191.793 184.299C190.905 182.339 188.546 181.981 186.624 182.184C181.951 182.678 178.209 185.76 174.971 189.037C176.034 187.377 176.932 185.601 177.51 183.742C177.791 182.837 177.947 181.724 177.204 180.989C176.549 180.34 175.573 180.408 174.758 180.684C173.632 181.066 172.666 181.86 171.744 182.591C170.555 183.534 169.438 184.57 168.39 185.669C166.429 187.73 164.716 190.009 163.153 192.381C162.823 192.879 162.508 193.383 162.192 193.886C162.178 193.799 162.168 193.707 162.153 193.62C161.916 192.265 161.741 190.682 161.139 189.429C160.236 187.566 157.902 186.927 156.024 186.564C155.164 186.394 154.228 186.37 153.505 186.936C152.733 187.541 152.781 188.238 152.917 189.114C153.073 190.121 152.243 189.961 151.587 189.869C150.889 189.767 150.18 189.734 149.471 189.777C148.384 189.845 147.302 190.082 146.307 190.527C144.288 191.423 142.725 193.179 142.201 195.338C142.002 196.155 141.992 196.935 142.118 197.685C144.254 200.153 147.71 201.101 150.893 201.745L150.898 201.75Z" fill="#FBCC78"/>
<path id="Vector_67" d="M175.355 189.632C173.811 191.824 172.603 194.2 171.739 196.736C171.647 197.002 172.069 197.114 172.161 196.852C173.015 194.35 174.209 192.013 175.733 189.855C175.894 189.627 175.515 189.409 175.355 189.637V189.632Z" fill="#D19E4D"/>
<path id="Vector_68" d="M161.173 196.064C160.785 196.935 160.396 197.806 160.008 198.672C159.897 198.924 160.27 199.146 160.387 198.89C160.775 198.019 161.163 197.148 161.552 196.281C161.663 196.03 161.29 195.807 161.173 196.064Z" fill="#D19E4D"/>
</g>
<g id="Group_4">
<path id="Vector_69" d="M124.578 219.961C117.429 218.746 110.188 218.654 103.126 220.435C100.408 221.117 98.7578 223.445 100.617 226.044C102.257 228.338 105.451 229.218 108.028 229.906C114.604 231.667 121.637 232.262 128.34 230.041C131.188 229.097 137.576 225.995 134.018 222.671C131.698 220.503 127.539 220.459 124.578 219.961Z" fill="white"/>
<path id="Vector_70" d="M128.242 215.818C128.587 214.56 128.65 213.224 127.51 212.3C126.466 211.453 124.986 211.458 123.802 211.98C121.419 213.045 119.623 215.702 118.773 218.383C117.812 215.987 115.74 213.548 112.978 213.853C111.848 213.979 111.086 214.768 110.901 215.876C110.857 216.142 110.853 216.404 110.882 216.65C108.523 215.557 105.591 215.445 103.233 216.273C102.189 216.641 100.927 217.463 100.908 218.702C100.908 218.906 100.937 219.089 101 219.268C101.01 219.399 101.029 219.539 101.078 219.694C101.466 220.928 103.315 221.287 104.378 221.824C106.033 222.661 106.116 224.597 107.8 225.39C109.217 226.053 111.149 225.865 112.658 225.608C112.949 225.56 113.284 225.497 113.638 225.424C113.449 226.402 113.658 227.365 114.755 227.926C115.546 228.333 116.327 228.178 117.162 228.076C117.541 227.965 117.929 227.926 118.327 227.955C118.448 228.139 118.579 228.313 118.715 228.488C119.045 228.696 119.254 229.01 119.608 229.213C122.015 230.588 124.476 228.502 124.316 226.344C124.331 226.344 124.35 226.344 124.369 226.339C125.762 226.189 127.267 225.879 128.466 225.119C129.402 224.529 129.931 223.348 130.528 222.453C131.072 221.635 131.383 220.735 131.407 219.728C131.455 217.754 130.291 216.041 128.242 215.808V215.818Z" fill="#BFC264"/>
<path id="Vector_71" d="M120.686 223.687C118.812 222.879 118.278 220.241 119.739 218.794C119.938 218.596 119.632 218.291 119.429 218.484C117.783 220.11 118.322 223.14 120.462 224.059C120.72 224.171 120.938 223.793 120.681 223.682L120.686 223.687Z" fill="#9B9B49"/>
<path id="Vector_72" d="M115.002 220.72C114.235 219.51 113.231 218.504 112.022 217.729C111.784 217.579 111.566 217.952 111.804 218.107C112.949 218.843 113.896 219.796 114.624 220.943C114.774 221.18 115.153 220.962 115.002 220.725V220.72Z" fill="#9B9B49"/>
<path id="Vector_73" d="M118.244 222.661C117.468 222.854 116.691 223.048 115.915 223.242C115.643 223.309 115.759 223.73 116.031 223.663C116.808 223.469 117.584 223.276 118.361 223.082C118.633 223.014 118.516 222.593 118.244 222.661Z" fill="#9B9B49"/>
</g>
</g>
<defs>
<clipPath id="clip0_77_9477">
<rect width="203" height="237" fill="white"/>
</clipPath>
</defs>
</svg>
